<svg width="350" height="351" viewBox="0 0 350 351" fill="none" xmlns="http://www.w3.org/2000/svg">
<g opacity="0.999995" filter="url(#filter0_b_466_772)">
<rect y="0.667969" width="350" height="350" rx="16" fill="url(#paint0_linear_466_772)"/>
<rect x="0.5" y="1.16797" width="349" height="349" rx="15.5" stroke="#EAEAEB" stroke-opacity="0.1"/>
<path d="M219.119 164.275H160.47C154.403 164.275 149.484 169.187 149.484 175.246V194.073C149.484 200.131 154.403 205.043 160.47 205.043H219.119C225.186 205.043 230.105 200.131 230.105 194.073V175.246C230.105 169.187 225.186 164.275 219.119 164.275Z" stroke="#00F8F8" stroke-width="3.61801" stroke-linecap="round" stroke-linejoin="round"/>
<path d="M169.313 167.623C168.057 170.831 165.915 177.524 166.474 186.217C166.939 193.237 168.987 198.536 170.384 201.511" stroke="#00F8F8" stroke-width="3.61801" stroke-linecap="round" stroke-linejoin="round"/>
<path d="M189.148 165.762C189.148 170.643 189.148 176.174 189.335 182.218C189.567 190.399 189.986 197.558 190.452 203.415" stroke="#00F8F8" stroke-width="3.61801" stroke-linecap="round" stroke-linejoin="round"/>
<path d="M210.043 167.529C212.044 170.83 215.442 177.663 214.558 186.588C213.813 193.794 210.555 199.232 208.367 202.254" stroke="#00F8F8" stroke-width="3.61801" stroke-linecap="round" stroke-linejoin="round"/>
<path d="M164.752 155.487L133.984 122.018H149.345L209.066 155.487" stroke="#00F8F8" stroke-width="3.61801" stroke-linecap="round" stroke-linejoin="round"/>
<path d="M194.501 147.031C199.714 147.217 207.953 147.031 217.728 144.892C226.991 142.8 230.389 140.476 237.185 140.058C244.12 139.593 255.292 140.988 269.908 152.562L270.187 155.444L265.439 160.93C263.624 163.068 260.924 164.277 258.131 164.277H104.291L92.4219 162.138V152.609L108.62 147.031H156.145" stroke="#00F8F8" stroke-width="3.61801" stroke-linecap="round" stroke-linejoin="round"/>
<path d="M108.615 147.027L92.4164 124.9H79.4297L92.4164 152.606" stroke="#00F8F8" stroke-width="3.61801" stroke-linecap="round" stroke-linejoin="round"/>
<path d="M92.4154 162.135L84.8281 175.058L93.998 177.754L104.285 164.273" stroke="#00F8F8" stroke-width="3.61801" stroke-linecap="round" stroke-linejoin="round"/>
<path d="M219.119 164.275H160.47C154.403 164.275 149.484 169.187 149.484 175.246V194.073C149.484 200.131 154.403 205.043 160.47 205.043H219.119C225.186 205.043 230.105 200.131 230.105 194.073V175.246C230.105 169.187 225.186 164.275 219.119 164.275Z" stroke="#00F8F8" stroke-width="3.61801" stroke-linecap="round" stroke-linejoin="round"/>
<path d="M169.313 167.623C168.057 170.831 165.915 177.524 166.474 186.217C166.939 193.237 168.987 198.536 170.384 201.511" stroke="#00F8F8" stroke-width="3.61801" stroke-linecap="round" stroke-linejoin="round"/>
<path d="M189.148 165.762C189.148 170.643 189.148 176.174 189.335 182.218C189.567 190.399 189.986 197.558 190.452 203.415" stroke="#00F8F8" stroke-width="3.61801" stroke-linecap="round" stroke-linejoin="round"/>
<path d="M210.043 167.529C212.044 170.83 215.442 177.663 214.558 186.588C213.813 193.794 210.555 199.232 208.367 202.254" stroke="#00F8F8" stroke-width="3.61801" stroke-linecap="round" stroke-linejoin="round"/>
<path d="M164.752 155.487L133.984 122.018H149.345L209.066 155.487" stroke="#00F8F8" stroke-width="3.61801" stroke-linecap="round" stroke-linejoin="round"/>
<path d="M194.501 147.031C199.714 147.217 207.953 147.031 217.728 144.892C226.991 142.8 230.389 140.476 237.185 140.058C244.12 139.593 255.292 140.988 269.908 152.562L270.187 155.444L265.439 160.93C263.624 163.068 260.924 164.277 258.131 164.277H104.291L92.4219 162.138V152.609L108.62 147.031H156.145" stroke="#00F8F8" stroke-width="3.61801" stroke-linecap="round" stroke-linejoin="round"/>
<path d="M108.615 147.027L92.4164 124.9H79.4297L92.4164 152.606" stroke="#00F8F8" stroke-width="3.61801" stroke-linecap="round" stroke-linejoin="round"/>
<path d="M92.4154 162.135L84.8281 175.058L93.998 177.754L104.285 164.273" stroke="#00F8F8" stroke-width="3.61801" stroke-linecap="round" stroke-linejoin="round"/>
<path d="M68.5781 217.535H282.536" stroke="#00F8F8" stroke-width="3.61801" stroke-linecap="round" stroke-linejoin="round"/>
</g>
<defs>
<filter id="filter0_b_466_772" x="-15" y="-14.332" width="380" height="380" filterUnits="userSpaceOnUse" color-interpolation-filters="sRGB">
<feFlood flood-opacity="0" result="BackgroundImageFix"/>
<feGaussianBlur in="BackgroundImageFix" stdDeviation="7.5"/>
<feComposite in2="SourceAlpha" operator="in" result="effect1_backgroundBlur_466_772"/>
<feBlend mode="normal" in="SourceGraphic" in2="effect1_backgroundBlur_466_772" result="shape"/>
</filter>
<linearGradient id="paint0_linear_466_772" x1="-39.3812" y1="89.0139" x2="382.755" y2="277.186" gradientUnits="userSpaceOnUse">
<stop stop-color="white" stop-opacity="0.05"/>
<stop offset="1" stop-color="white" stop-opacity="0"/>
</linearGradient>
</defs>
</svg>
