<svg width="464" height="401" viewBox="0 0 464 401" fill="none" xmlns="http://www.w3.org/2000/svg">
<g opacity="0.999995" filter="url(#filter0_b_299_723)">
<rect x="0.117188" y="0.667969" width="463" height="400" rx="16" fill="url(#paint0_linear_299_723)"/>
<rect x="0.617188" y="1.16797" width="462" height="399" rx="15.5" stroke="#EAEAEB" stroke-opacity="0.1"/>
<g clip-path="url(#clip0_299_723)">
<path d="M95.9922 67.9055C95.9922 67.9055 95.9922 67.8842 95.9922 67.8629C96.5242 64.9684 98.865 53.1347 109.015 43.8338C111.505 41.5564 121.379 32.7876 136.467 33.0855C150.745 33.3622 160.002 41.5777 162.194 43.6422C171.259 52.1769 173.409 62.4569 173.962 65.7984C168.046 82.1868 161.832 98.8093 155.342 115.666C148.66 133.012 141.893 149.975 135.083 166.534L96.0135 67.9268L95.9922 67.9055Z" stroke="#00F8F8" stroke-width="2.89755" stroke-miterlimit="10"/>
<path d="M135.064 166.512L120.551 67.3947C120.338 63.4785 120.487 56.7316 123.317 49.027C126.19 41.1946 130.552 35.9163 133.276 33.043" stroke="#00F8F8" stroke-width="2.89755" stroke-miterlimit="10"/>
<path d="M134.977 165.148L149.489 67.0524C149.702 63.1788 149.553 56.4957 146.723 48.8762C143.85 41.129 139.488 35.8932 136.764 33.0625" stroke="#00F8F8" stroke-width="2.89755" stroke-miterlimit="10"/>
<path d="M95.9922 68.2037C97.0349 67.1608 101.036 63.3936 107.441 62.9041C114.633 62.3507 119.57 66.3308 120.549 67.1608" stroke="#00F8F8" stroke-width="2.89755" stroke-miterlimit="10"/>
<path d="M120.125 68.2007C121.381 66.796 126.232 61.7305 133.978 61.0707C142.682 60.3258 148.64 65.6892 149.832 66.796" stroke="#00F8F8" stroke-width="2.89755" stroke-miterlimit="10"/>
<path d="M149.445 67.3724C150.488 66.3083 154.489 62.4134 160.873 61.9025C168.044 61.3279 172.96 65.4356 173.938 66.287" stroke="#00F8F8" stroke-width="2.89755" stroke-miterlimit="10"/>
<path d="M109.483 167.746C108.292 167.746 107.121 168.172 106.228 168.959L94.2683 179.282C94.0555 179.665 93.8214 180.176 93.7363 180.814C93.5873 181.793 93.8001 182.666 94.098 183.368C94.5236 184.347 95.5451 184.943 96.609 184.922C109.207 184.837 115.506 184.794 115.506 184.794C115.506 184.794 115.548 184.73 117.123 182.985C131.976 182.879 146.83 182.751 161.683 182.645L153.682 190.775H189.56L193.731 190.69C196.178 190.647 197.816 188.136 196.88 185.88C196.348 184.603 195.667 183.283 194.816 182.176C193.922 181.006 192.433 179.537 189.836 178.367C189.134 178.047 188.347 177.92 187.559 177.92H182.814L175.6 171.598C173.047 169.364 169.791 168.129 166.407 168.108L109.547 167.789L109.483 167.746Z" stroke="#00F8F8" stroke-width="2.89755" stroke-miterlimit="10"/>
<path d="M117.399 182.966L161.959 182.625L117.399 224.937H102.844L117.399 182.966Z" stroke="#00F8F8" stroke-width="2.89755" stroke-miterlimit="10"/>
<path d="M94.5682 179.028C90.6314 170.28 86.6946 161.532 82.7578 152.785C86.6946 152.7 90.6101 152.636 94.5469 152.551C98.9093 157.616 103.272 162.66 107.655 167.726C103.293 171.493 98.9305 175.26 94.5894 179.028H94.5682Z" stroke="#00F8F8" stroke-width="2.89755" stroke-miterlimit="10"/>
<path d="M94.2685 184.988L83.5859 208.677H94.2685L114.74 184.988H94.2685Z" stroke="#00F8F8" stroke-width="2.89755" stroke-miterlimit="10"/>
</g>
<g clip-path="url(#clip1_299_723)">
<path d="M251.805 144.108C251.805 144.108 251.805 144.082 251.805 144.055C252.473 140.418 255.414 125.552 268.166 113.868C271.293 111.007 283.698 99.9905 302.652 100.365C320.59 100.712 332.219 111.033 334.973 113.627C346.361 124.349 349.061 137.263 349.756 141.461C342.324 162.05 334.518 182.932 326.364 204.109C317.97 225.9 309.469 247.21 300.914 268.013L251.831 144.135L251.805 144.108Z" stroke="#00F8F8" stroke-width="3.64012" stroke-miterlimit="10"/>
<path d="M300.886 267.987L282.654 143.468C282.386 138.548 282.573 130.072 286.129 120.393C289.738 110.553 295.218 103.922 298.64 100.312" stroke="#00F8F8" stroke-width="3.64012" stroke-miterlimit="10"/>
<path d="M300.781 266.273L319.013 143.037C319.281 138.17 319.094 129.775 315.538 120.202C311.929 110.47 306.449 103.892 303.027 100.336" stroke="#00F8F8" stroke-width="3.64012" stroke-miterlimit="10"/>
<path d="M251.805 144.482C253.115 143.171 258.141 138.439 266.187 137.824C275.223 137.129 281.425 142.129 282.655 143.171" stroke="#00F8F8" stroke-width="3.64012" stroke-miterlimit="10"/>
<path d="M282.121 144.484C283.698 142.719 289.794 136.355 299.525 135.526C310.459 134.59 317.944 141.328 319.441 142.719" stroke="#00F8F8" stroke-width="3.64012" stroke-miterlimit="10"/>
<path d="M318.957 143.441C320.267 142.104 325.293 137.211 333.313 136.569C342.322 135.847 348.498 141.007 349.727 142.077" stroke="#00F8F8" stroke-width="3.64012" stroke-miterlimit="10"/>
<path d="M268.75 269.535C267.253 269.535 265.783 270.07 264.66 271.059L249.636 284.027C249.369 284.508 249.074 285.15 248.968 285.952C248.78 287.182 249.048 288.279 249.422 289.161C249.957 290.391 251.24 291.14 252.577 291.113C268.403 291.006 276.316 290.952 276.316 290.952C276.316 290.952 276.369 290.872 278.348 288.68C297.008 288.546 315.668 288.386 334.327 288.252L324.276 298.466H369.348L374.588 298.359C377.662 298.305 379.721 295.15 378.545 292.316C377.876 290.712 377.021 289.054 375.951 287.664C374.829 286.193 372.957 284.348 369.696 282.877C368.814 282.476 367.825 282.316 366.835 282.316H360.874L351.811 274.375C348.603 271.567 344.513 270.016 340.262 269.99L268.83 269.589L268.75 269.535Z" stroke="#00F8F8" stroke-width="3.64012" stroke-miterlimit="10"/>
<path d="M278.7 288.654L334.68 288.227L278.7 341.382H260.414L278.7 288.654Z" stroke="#00F8F8" stroke-width="3.64012" stroke-miterlimit="10"/>
<path d="M250.013 283.708C245.067 272.718 240.121 261.729 235.176 250.739C240.121 250.632 245.04 250.552 249.986 250.445C255.466 256.809 260.947 263.146 266.454 269.51C260.974 274.242 255.493 278.975 250.04 283.708H250.013Z" stroke="#00F8F8" stroke-width="3.64012" stroke-miterlimit="10"/>
<path d="M249.639 291.191L236.219 320.951H249.639L275.357 291.191H249.639Z" stroke="#00F8F8" stroke-width="3.64012" stroke-miterlimit="10"/>
</g>
</g>
<defs>
<filter id="filter0_b_299_723" x="-14.8828" y="-14.332" width="493" height="430" filterUnits="userSpaceOnUse" color-interpolation-filters="sRGB">
<feFlood flood-opacity="0" result="BackgroundImageFix"/>
<feGaussianBlur in="BackgroundImageFix" stdDeviation="7.5"/>
<feComposite in2="SourceAlpha" operator="in" result="effect1_backgroundBlur_299_723"/>
<feBlend mode="normal" in="SourceGraphic" in2="effect1_backgroundBlur_299_723" result="shape"/>
</filter>
<linearGradient id="paint0_linear_299_723" x1="-51.9785" y1="101.635" x2="476.67" y2="374.401" gradientUnits="userSpaceOnUse">
<stop stop-color="white" stop-opacity="0.05"/>
<stop offset="1" stop-color="white" stop-opacity="0"/>
</linearGradient>
<clipPath id="clip0_299_723">
<rect width="117.061" height="194" fill="white" transform="translate(81.1172 32)"/>
</clipPath>
<clipPath id="clip1_299_723">
<rect width="147.061" height="243.718" fill="white" transform="translate(233.117 99)"/>
</clipPath>
</defs>
</svg>
