<svg width="351" height="351" viewBox="0 0 351 351" fill="none" xmlns="http://www.w3.org/2000/svg">
<g opacity="0.999995" filter="url(#filter0_b_466_750)">
<rect x="0.664062" y="0.667969" width="350" height="350" rx="16" fill="url(#paint0_linear_466_750)"/>
<rect x="1.16406" y="1.16797" width="349" height="349" rx="15.5" stroke="#EAEAEB" stroke-opacity="0.1"/>
<path d="M215.323 150.213H156.673C150.606 150.213 145.688 155.125 145.688 161.183V180.01C145.688 186.069 150.606 190.981 156.673 190.981H215.323C221.39 190.981 226.308 186.069 226.308 180.01V161.183C226.308 155.125 221.39 150.213 215.323 150.213Z" stroke="#00F8F8" stroke-width="3.61801" stroke-linecap="round" stroke-linejoin="round"/>
<path d="M165.516 153.561C164.26 156.768 162.118 163.462 162.677 172.155C163.143 179.174 165.191 184.473 166.587 187.448" stroke="#00F8F8" stroke-width="3.61801" stroke-linecap="round" stroke-linejoin="round"/>
<path d="M185.352 151.699C185.352 156.58 185.352 162.112 185.538 168.155C185.77 176.337 186.189 183.495 186.655 189.352" stroke="#00F8F8" stroke-width="3.61801" stroke-linecap="round" stroke-linejoin="round"/>
<path d="M206.246 153.467C208.248 156.767 211.646 163.601 210.761 172.526C210.016 179.731 206.758 185.17 204.57 188.191" stroke="#00F8F8" stroke-width="3.61801" stroke-linecap="round" stroke-linejoin="round"/>
<path d="M160.955 141.425L130.188 107.955H145.548L205.269 141.425" stroke="#00F8F8" stroke-width="3.61801" stroke-linecap="round" stroke-linejoin="round"/>
<path d="M190.704 132.968C195.917 133.154 204.156 132.968 213.931 130.83C223.194 128.738 226.592 126.414 233.388 125.995C240.323 125.53 251.495 126.925 266.111 138.5L266.39 141.382L261.642 146.867C259.827 149.006 257.127 150.214 254.334 150.214H100.495L88.625 148.076V138.546L104.824 132.968H152.349" stroke="#00F8F8" stroke-width="3.61801" stroke-linecap="round" stroke-linejoin="round"/>
<path d="M104.818 132.967L88.6196 110.84H75.6328L88.6196 138.545" stroke="#00F8F8" stroke-width="3.61801" stroke-linecap="round" stroke-linejoin="round"/>
<path d="M88.6263 148.072L81.0391 160.995L90.2089 163.691L100.496 150.211" stroke="#00F8F8" stroke-width="3.61801" stroke-linecap="round" stroke-linejoin="round"/>
<path d="M215.323 150.213H156.673C150.606 150.213 145.688 155.125 145.688 161.183V180.01C145.688 186.069 150.606 190.981 156.673 190.981H215.323C221.39 190.981 226.308 186.069 226.308 180.01V161.183C226.308 155.125 221.39 150.213 215.323 150.213Z" stroke="#00F8F8" stroke-width="3.61801" stroke-linecap="round" stroke-linejoin="round"/>
<path d="M165.516 153.561C164.26 156.768 162.118 163.462 162.677 172.155C163.143 179.174 165.191 184.473 166.587 187.448" stroke="#00F8F8" stroke-width="3.61801" stroke-linecap="round" stroke-linejoin="round"/>
<path d="M185.352 151.699C185.352 156.58 185.352 162.112 185.538 168.155C185.77 176.337 186.189 183.495 186.655 189.352" stroke="#00F8F8" stroke-width="3.61801" stroke-linecap="round" stroke-linejoin="round"/>
<path d="M206.246 153.467C208.248 156.767 211.646 163.601 210.761 172.526C210.016 179.731 206.758 185.17 204.57 188.191" stroke="#00F8F8" stroke-width="3.61801" stroke-linecap="round" stroke-linejoin="round"/>
<path d="M160.955 141.425L130.188 107.955H145.548L205.269 141.425" stroke="#00F8F8" stroke-width="3.61801" stroke-linecap="round" stroke-linejoin="round"/>
<path d="M190.704 132.968C195.917 133.154 204.156 132.968 213.931 130.83C223.194 128.738 226.592 126.414 233.388 125.995C240.323 125.53 251.495 126.925 266.111 138.5L266.39 141.382L261.642 146.867C259.827 149.006 257.127 150.214 254.334 150.214H100.495L88.625 148.076V138.546L104.824 132.968H152.349" stroke="#00F8F8" stroke-width="3.61801" stroke-linecap="round" stroke-linejoin="round"/>
<path d="M104.818 132.967L88.6196 110.84H75.6328L88.6196 138.545" stroke="#00F8F8" stroke-width="3.61801" stroke-linecap="round" stroke-linejoin="round"/>
<path d="M88.6263 148.072L81.0391 160.995L90.2089 163.691L100.496 150.211" stroke="#00F8F8" stroke-width="3.61801" stroke-linecap="round" stroke-linejoin="round"/>
<path d="M77.4062 228.863C86.8089 219.148 94.303 217.382 99.3767 217.475C108.081 217.707 110.827 223.611 120.509 223.146C129.539 222.727 130.377 217.428 139.221 217.475C148.252 217.475 149.089 223.053 157.933 223.146C167.941 223.285 169.943 216.266 178.368 217.475C186.653 218.637 187.538 225.795 194.52 225.609C201.688 225.377 203.038 217.8 210.765 217.475C216.676 217.242 217.7 221.565 224.59 222.356C232.316 223.192 235.994 218.311 242.464 216.684C248.701 215.104 258.243 216.405 272.533 228.863" stroke="#00F8F8" stroke-width="3.61801" stroke-linecap="round" stroke-linejoin="round"/>
<path d="M80.1094 243.182C89.512 233.466 97.0061 231.7 102.08 231.793C110.784 232.025 113.531 237.929 123.212 237.464C132.243 237.046 133.08 231.746 141.924 231.793C150.955 231.793 151.793 237.371 160.637 237.464C170.644 237.604 172.646 230.584 181.071 231.793C189.356 232.955 190.241 240.114 197.223 239.928C204.391 239.695 205.741 232.118 213.468 231.793C219.38 231.56 220.404 235.884 227.293 236.674C235.02 237.511 238.697 232.63 245.167 231.003C251.404 229.422 260.947 230.724 275.237 243.182" stroke="#00F8F8" stroke-width="3.61801" stroke-linecap="round" stroke-linejoin="round"/>
</g>
<defs>
<filter id="filter0_b_466_750" x="-14.3359" y="-14.332" width="380" height="380" filterUnits="userSpaceOnUse" color-interpolation-filters="sRGB">
<feFlood flood-opacity="0" result="BackgroundImageFix"/>
<feGaussianBlur in="BackgroundImageFix" stdDeviation="7.5"/>
<feComposite in2="SourceAlpha" operator="in" result="effect1_backgroundBlur_466_750"/>
<feBlend mode="normal" in="SourceGraphic" in2="effect1_backgroundBlur_466_750" result="shape"/>
</filter>
<linearGradient id="paint0_linear_466_750" x1="-38.7171" y1="89.0139" x2="383.42" y2="277.186" gradientUnits="userSpaceOnUse">
<stop stop-color="white" stop-opacity="0.05"/>
<stop offset="1" stop-color="white" stop-opacity="0"/>
</linearGradient>
</defs>
</svg>
