<svg width="233" height="222" viewBox="0 0 233 222" fill="none" xmlns="http://www.w3.org/2000/svg">
<path d="M10.832 60.4805H83.6012" stroke="#00F8F8" stroke-width="3.61801" stroke-linecap="round" stroke-linejoin="round"/>
<path d="M149.395 60.2148H222.164" stroke="#00F8F8" stroke-width="3.61801" stroke-linecap="round" stroke-linejoin="round"/>
<path d="M43.2539 69.6605V88.0727L108.092 92.8382V101.719L70.1685 129.706L70.7753 148.118C75.066 143.352 79.3568 138.544 83.6042 133.778L118.45 115.366L156.98 134.471C160.837 139.02 164.738 143.569 168.595 148.118V126.283L128.245 102.412L127.638 90.802L188.185 86.6863V69.6172" stroke="#00F8F8" stroke-width="3.61801" stroke-linecap="round" stroke-linejoin="round"/>
<path d="M57.5586 69.6641V78.5019H99.1224" stroke="#00F8F8" stroke-width="3.61801" stroke-linecap="round" stroke-linejoin="round"/>
<path d="M173.709 68.2773V77.1585H132.102" stroke="#00F8F8" stroke-width="3.61801" stroke-linecap="round" stroke-linejoin="round"/>
<path d="M100.508 69.0542C101.548 67.6246 106.619 60.8662 114.897 60.2164C125.039 59.4366 131.453 68.3177 132.233 69.4008" stroke="#00F8F8" stroke-width="3.61801" stroke-linecap="round" stroke-linejoin="round"/>
</svg>
