<svg width="62" height="63" viewBox="0 0 62 63" fill="none" xmlns="http://www.w3.org/2000/svg">
<path opacity="0.25" fill-rule="evenodd" clip-rule="evenodd" d="M30.9887 61.0477C47.3525 61.0477 60.618 47.7822 60.618 31.4184C60.618 15.0546 47.3525 1.78906 30.9887 1.78906C14.6249 1.78906 1.35938 15.0546 1.35938 31.4184C1.35938 47.7822 14.6249 61.0477 30.9887 61.0477Z" stroke="#F2F2F8" stroke-width="2.53966"/>
<path d="M41.3307 23.9459C41.1932 23.7905 40.9715 23.7514 40.7897 23.8473C40.6766 23.9068 40.464 23.985 40.2116 24.0622C40.53 23.6267 40.7861 23.1391 40.8992 22.7009C40.948 22.512 40.8765 22.3128 40.7209 22.2002C40.5653 22.0886 40.3581 22.0886 40.2025 22.2002C39.9574 22.3761 38.774 22.9046 38.0258 23.0759C36.335 21.5526 34.3673 21.3944 32.3217 22.6227C30.6589 23.6212 30.297 25.6516 30.3676 26.8892C26.5616 26.5124 24.1958 24.4447 22.8641 22.7334C22.7709 22.6134 22.6207 22.5501 22.4796 22.5594C22.3312 22.5706 22.1973 22.6553 22.1213 22.7865C21.4916 23.8799 21.317 25.0886 21.6183 26.2825C21.783 26.9339 22.0707 27.508 22.4045 27.9733C22.2444 27.8924 22.0897 27.7909 21.944 27.67C21.8101 27.5564 21.6228 27.535 21.4645 27.6104C21.3071 27.6876 21.2067 27.8514 21.2067 28.031C21.2067 30.081 22.4533 31.4489 23.6177 32.1635C23.4295 32.1403 23.2332 32.0975 23.0351 32.0351C22.865 31.9821 22.6804 32.0351 22.5628 32.1729C22.4452 32.3096 22.4172 32.5051 22.4904 32.6716C23.1445 34.1596 24.384 35.1832 25.9174 35.5544C24.5785 36.3631 22.7863 36.7595 21.1451 36.565C20.9325 36.5343 20.7299 36.673 20.6629 36.8833C20.596 37.0936 20.6838 37.3243 20.871 37.4323C23.3607 38.87 25.6116 39.3836 27.5567 39.3836C30.3875 39.3836 32.5723 38.2968 33.9022 37.3876C37.4876 34.9403 39.7221 30.5463 39.4109 26.6147C39.9854 26.1783 40.8449 25.3724 41.3777 24.5061C41.4881 24.3312 41.4682 24.1004 41.3307 23.9459Z" fill="#F2F2F8"/>
</svg>
