<svg width="63" height="63" viewBox="0 0 63 63" fill="none" xmlns="http://www.w3.org/2000/svg">
<path opacity="0.25" fill-rule="evenodd" clip-rule="evenodd" d="M31.3324 61.0477C47.6963 61.0477 60.9617 47.7822 60.9617 31.4184C60.9617 15.0546 47.6963 1.78906 31.3324 1.78906C14.9686 1.78906 1.70312 15.0546 1.70312 31.4184C1.70312 47.7822 14.9686 61.0477 31.3324 61.0477Z" stroke="#F2F2F8" stroke-width="2.53966"/>
<path d="M24.5274 25.4377C25.9147 25.4377 27.0392 24.3131 27.0392 22.9259C27.0392 21.5386 25.9147 20.4141 24.5274 20.4141C23.1402 20.4141 22.0156 21.5386 22.0156 22.9259C22.0156 24.3131 23.1402 25.4377 24.5274 25.4377Z" fill="#F2F2F8"/>
<path d="M26.6206 27.1172H22.4343C22.2032 27.1172 22.0156 27.3047 22.0156 27.5358V40.0948C22.0156 40.3259 22.2032 40.5135 22.4343 40.5135H26.6206C26.8517 40.5135 27.0392 40.3259 27.0392 40.0948V27.5358C27.0392 27.3047 26.8517 27.1172 26.6206 27.1172Z" fill="#F2F2F8"/>
<path d="M39.0984 26.4167C37.3091 25.8038 35.0711 26.3422 33.729 27.3075C33.6829 27.1275 33.5188 26.9936 33.3237 26.9936H29.1374C28.9063 26.9936 28.7188 27.1811 28.7188 27.4122V39.9712C28.7188 40.2023 28.9063 40.3898 29.1374 40.3898H33.3237C33.5548 40.3898 33.7424 40.2023 33.7424 39.9712V30.9455C34.4189 30.3627 35.2905 30.1769 36.0038 30.4799C36.6954 30.7722 37.0914 31.4855 37.0914 32.4358V39.9712C37.0914 40.2023 37.279 40.3898 37.5101 40.3898H41.6964C41.9275 40.3898 42.115 40.2023 42.115 39.9712V31.5927C42.0673 28.1523 40.4489 26.8789 39.0984 26.4167Z" fill="#F2F2F8"/>
</svg>
