<svg width="51" height="51" viewBox="0 0 51 51" fill="none" xmlns="http://www.w3.org/2000/svg">
<path d="M40.6526 31.7761L35.5623 31.1949C34.3398 31.0547 33.1374 31.4755 32.2757 32.3372L28.5882 36.0247C22.9168 33.1389 18.2674 28.5095 15.3816 22.818L19.0891 19.1105C19.9508 18.2488 20.3716 17.0464 20.2314 15.8239L19.6502 10.7737C19.4097 8.74964 17.7063 7.22656 15.6621 7.22656H12.1951C9.93057 7.22656 8.04677 9.11036 8.18705 11.3749C9.24919 28.4895 22.9368 42.1571 40.0313 43.2192C42.2959 43.3595 44.1797 41.4757 44.1797 39.2111V35.7441C44.1997 33.72 42.6767 32.0166 40.6526 31.7761Z" fill="#3B69B2"/>
</svg>
