<svg width="155" height="171" viewBox="0 0 155 171" fill="none" xmlns="http://www.w3.org/2000/svg">
<g filter="url(#filter0_d_299_1095)">
<path d="M77.3838 45.668C67.773 45.668 60 53.441 60 63.0518C60 67.3729 61.2417 71.4208 63.5016 75.0714C65.8608 78.8958 68.9651 82.1739 71.3491 85.9984C72.5163 87.8609 73.3607 89.5993 74.2547 91.6108C74.9004 92.9767 75.4219 95.3359 77.3838 95.3359C79.3457 95.3359 79.8672 92.9767 80.488 91.6108C81.4069 89.5993 82.2264 87.8609 83.3936 85.9984C85.7777 82.1988 88.8819 78.9207 91.2412 75.0714C93.5259 71.4208 94.7676 67.3729 94.7676 63.0518C94.7676 53.441 86.9945 45.668 77.3838 45.668ZM77.3838 69.8811C73.9567 69.8811 71.1753 67.0997 71.1753 63.6726C71.1753 60.2455 73.9567 57.4641 77.3838 57.4641C80.8109 57.4641 83.5923 60.2455 83.5923 63.6726C83.5923 67.0997 80.8109 69.8811 77.3838 69.8811Z" fill="#00F8F8"/>
<path d="M63.9271 74.8089L63.9267 74.8082C61.7121 71.2308 60.5 67.2731 60.5 63.0518C60.5 53.7171 68.0492 46.168 77.3838 46.168C86.7184 46.168 94.2676 53.7171 94.2676 63.0518C94.2676 67.273 93.0556 71.2298 90.8173 74.8061L90.8149 74.8101C89.6513 76.7086 88.3015 78.4702 86.9307 80.2482C86.8914 80.2992 86.8522 80.3501 86.8128 80.4011C85.4854 82.1226 84.1426 83.8639 82.9701 85.7326L82.9699 85.7329C81.7839 87.6255 80.9529 89.3898 80.0332 91.4031L80.0329 91.4039C79.9209 91.6502 79.8093 91.9341 79.6984 92.2162C79.6499 92.3395 79.6015 92.4625 79.5533 92.5819C79.3888 92.9895 79.2156 93.3834 79.0093 93.7296C78.5987 94.4187 78.1121 94.8359 77.3838 94.8359C76.6554 94.8359 76.1686 94.4187 75.7544 93.7283C75.5463 93.3815 75.3708 92.9871 75.2024 92.5786C75.1583 92.4716 75.1141 92.362 75.0696 92.2519C74.9511 91.9581 74.8313 91.6611 74.7093 91.4025C73.8119 89.3836 72.9571 87.6227 71.7732 85.7335C70.5808 83.8207 69.2126 82.0461 67.863 80.2957L67.812 80.2296C66.4407 78.451 65.0909 76.6954 63.9271 74.8089ZM70.6753 63.6726C70.6753 67.3758 73.6806 70.3811 77.3838 70.3811C81.087 70.3811 84.0923 67.3758 84.0923 63.6726C84.0923 59.9694 81.087 56.9641 77.3838 56.9641C73.6806 56.9641 70.6753 59.9694 70.6753 63.6726Z" stroke="url(#paint0_linear_299_1095)"/>
</g>
<defs>
<filter id="filter0_d_299_1095" x="0" y="0.667969" width="154.766" height="169.668" filterUnits="userSpaceOnUse" color-interpolation-filters="sRGB">
<feFlood flood-opacity="0" result="BackgroundImageFix"/>
<feColorMatrix in="SourceAlpha" type="matrix" values="0 0 0 0 0 0 0 0 0 0 0 0 0 0 0 0 0 0 127 0" result="hardAlpha"/>
<feOffset dy="15"/>
<feGaussianBlur stdDeviation="30"/>
<feComposite in2="hardAlpha" operator="out"/>
<feColorMatrix type="matrix" values="0 0 0 0 0.176471 0 0 0 0 0.192157 0 0 0 0 0.545098 0 0 0 0.1 0"/>
<feBlend mode="normal" in2="BackgroundImageFix" result="effect1_dropShadow_299_1095"/>
<feBlend mode="normal" in="SourceGraphic" in2="effect1_dropShadow_299_1095" result="shape"/>
</filter>
<linearGradient id="paint0_linear_299_1095" x1="61.0714" y1="51.3414" x2="97.4501" y2="56.8507" gradientUnits="userSpaceOnUse">
<stop stop-color="#1D1D1D"/>
<stop offset="1" stop-color="#232323"/>
</linearGradient>
</defs>
</svg>
