<svg width="20" height="15" viewBox="0 0 20 15" fill="none" xmlns="http://www.w3.org/2000/svg">
<path d="M12.4844 1.39013C12.5778 1.29486 12.7054 1.24089 12.8389 1.24024C12.9723 1.23959 13.1005 1.29232 13.1949 1.38668L18.9546 7.14645C19.1499 7.34171 19.1499 7.65829 18.9546 7.85355L13.1949 13.6133C12.9996 13.8086 12.683 13.8086 12.4878 13.6133L11.4607 12.5862C11.2658 12.3913 11.2654 12.0754 11.4598 11.88L14.6392 8.68473H1.40234C1.1262 8.68473 0.902344 8.46087 0.902344 8.18473V6.81527C0.902344 6.53913 1.1262 6.31527 1.40234 6.31527H14.6349L11.4607 3.14102C11.2668 2.94709 11.2652 2.63316 11.4573 2.43736L12.4844 1.39013Z" fill="#00F8F8" stroke="#00F8F8" stroke-linejoin="round"/>
</svg>
