<svg width="21" height="14" viewBox="0 0 21 14" fill="none" xmlns="http://www.w3.org/2000/svg">
<path d="M12.9844 0.843255C13.0778 0.74798 13.2054 0.694013 13.3389 0.693365C13.4723 0.692718 13.6005 0.745443 13.6949 0.839806L19.4546 6.59957C19.6499 6.79483 19.6499 7.11142 19.4546 7.30668L13.6949 13.0664C13.4996 13.2617 13.183 13.2617 12.9878 13.0664L11.9607 12.0394C11.7658 11.8444 11.7654 11.5285 11.9598 11.3331L15.1392 8.13785H1.90234C1.6262 8.13785 1.40234 7.914 1.40234 7.63785V6.2684C1.40234 5.99226 1.6262 5.7684 1.90234 5.7684H15.1349L11.9607 2.59414C11.7668 2.40022 11.7652 2.08628 11.9573 1.89048L12.9844 0.843255Z" fill="#00F8F8" stroke="#00F8F8" stroke-linejoin="round"/>
</svg>
